{"title":"Himmatwala 2013 Final Cam [Team ICTV] Phantom","uid":8317257,"size":839669760,"categoryP":"video","categoryS":"movies","magnet":"?xt=urn:btih:e645be374d2f6b6dcc623a7ef82ce08cb89fb53e&amp;dn=Himmatwala+2013+Final+Cam+%5BTeam+ICTV%5D+Phantom&amp;tr=udp%3A%2F%2Ftracker.openbittorrent.com%3A80&amp;tr=udp%3A%2F%2Fopen.demonii.com%3A1337&amp;tr=udp%3A%2F%2Ftracker.coppersurfer.tk%3A6969&amp;tr=udp%3A%2F%2Fexodus.desync.com%3A6969","seeders":1,"leechers":0,"uploader":"zyx55e","files":1,"time":1364615670,"description":"Himmatwala 2013 Final Cam [Team ICTV] Phantom\n &lt;a href=&quot;\nhttp://www.imdb.com/title/tt2344678/&quot; rel=&quot;nofollow&quot; target=&quot;_NEW&quot;&gt;\nhttp://www.imdb.com/title/tt2344678/&lt;/a&gt;\n\nPoster: &lt;a href=&quot;\nhttp://desibbrg.org/images/20597775436576632792.jpg&quot; rel=&quot;nofollow&quot; target=&quot;_NEW&quot;&gt;\nhttp://desibbrg.org/images/20597775436576632792.jpg&lt;/a&gt;\n\nScreens: &lt;a href=&quot;\nhttp://desibbrg.org/images/92361371448743557303.jpg&quot; rel=&quot;nofollow&quot; target=&quot;_NEW&quot;&gt;\nhttp://desibbrg.org/images/92361371448743557303.jpg&lt;/a&gt;\n &lt;a href=&quot;\nhttp://desibbrg.org/images/82866424754142770304.jpg&quot; rel=&quot;nofollow&quot; target=&quot;_NEW&quot;&gt;\nhttp://desibbrg.org/images/82866424754142770304.jpg&lt;/a&gt;\n &lt;a href=&quot;\nhttp://desibbrg.org/images/77537509781410124015.jpg&quot; rel=&quot;nofollow&quot; target=&quot;_NEW&quot;&gt;\nhttp://desibbrg.org/images/77537509781410124015.jpg&lt;/a&gt;\n &lt;a href=&quot;\nhttp://desibbrg.org/images/52742374569172574210.jpg&quot; rel=&quot;nofollow&quot; target=&quot;_NEW&quot;&gt;\nhttp://desibbrg.org/images/52742374569172574210.jpg&lt;/a&gt;\n &lt;a href=&quot;\nhttp://desibbrg.org/images/30867945382548534065.jpg&quot; rel=&quot;nofollow&quot; target=&quot;_NEW&quot;&gt;\nhttp://desibbrg.org/images/30867945382548534065.jpg&lt;/a&gt;\n &lt;a href=&quot;\nhttp://desibbrg.org/images/29454466273047149623.jpg&quot; rel=&quot;nofollow&quot; target=&quot;_NEW&quot;&gt;\nhttp://desibbrg.org/images/29454466273047149623.jpg&lt;/a&gt;\n &lt;a href=&quot;\nhttp://desibbrg.org/images/53542706268808001178.jpg&quot; rel=&quot;nofollow&quot; target=&quot;_NEW&quot;&gt;\nhttp://desibbrg.org/images/53542706268808001178.jpg&lt;/a&gt;\n &lt;a href=&quot;\nhttp://desibbrg.org/images/03023721077607872061.jpg&quot; rel=&quot;nofollow&quot; target=&quot;_NEW&quot;&gt;\nhttp://desibbrg.org/images/03023721077607872061.jpg&lt;/a&gt;\n &lt;a href=&quot;\nhttp://desibbrg.org/images/97786408465621095656.jpg&quot; rel=&quot;nofollow&quot; target=&quot;_NEW&quot;&gt;\nhttp://desibbrg.org/images/97786408465621095656.jpg&lt;/a&gt;\n &lt;a href=&quot;\nhttp://desibbrg.org/images/32726247491156722212.jpg&quot; rel=&quot;nofollow&quot; target=&quot;_NEW&quot;&gt;\nhttp://desibbrg.org/images/32726247491156722212.jpg&lt;/a&gt;\n\nMedia Info:\nFormat : MPEG-PS\nFile size : 801 MiB\nDuration : 2h 13mn\nOverall bit rate : 836 Kbps\n\nVideo\nID : 224 (0xE0)\nFormat : MPEG Video\nFormat version : Version 2\nFormat settings, BVOP : Yes\nFormat settings, Matrix : Custom\nDuration : 2h 13mn\nBit rate : 756 Kbps\nMaximum bit rate : 1 150 Kbps\nWidth : 352 pixels\nHeight : 288 pixels\nDisplay aspect ratio : 1.222\nFrame rate : 25.000 fps\nStandard : PAL\nColor space : YUV\nBit depth : 8 bits\nScan type : Progressive\nCompression mode : Lossy\nBits/(Pixel*Frame) : 0.298\nStream size : 724 MiB (90%)\n\nAudio\nID : 192 (0xC0)\nFormat : MPEG Audio\nFormat version : Version 1\nFormat profile : Layer 2\nDuration : 2h 13mn\nBit rate mode : Constant\nBit rate : 64.0 Kbps\nChannel(s) : 2 channels\nSampling rate : 48.0 KHz\nCompression mode : Lossy\nStream size : 61.3 MiB (8%)\n\nAll Credits to TJ DA KING for the rip-n-share.\n\nExtreme Seeding...\n","torrent":{"xt":"urn:btih:e645be374d2f6b6dcc623a7ef82ce08cb89fb53e","amp;dn":"Himmatwala+2013+Final+Cam+%5BTeam+ICTV%5D+Phantom","amp;tr":["udp%3A%2F%2Ftracker.openbittorrent.com%3A80","udp%3A%2F%2Fopen.demonii.com%3A1337","udp%3A%2F%2Ftracker.coppersurfer.tk%3A6969","udp%3A%2F%2Fexodus.desync.com%3A6969"],"infoHash":"e645be374d2f6b6dcc623a7ef82ce08cb89fb53e","infoHashBuffer":{"type":"Buffer","data":[230,69,190,55,77,47,107,109,204,98,58,126,248,44,224,140,184,159,181,62]},"announce":[],"urlList":[]}}